<svg xmlns="http://www.w3.org/2000/svg" viewBox="0 0 240 240" role="img" aria-label="Risen Six">
  <path d="M 102 22 L 110 6 L 118 22 L 120 4 L 122 22 L 130 6 L 138 22 Z" fill="#FAF6EE"/>
  <g fill="none" stroke="#FAF6EE" stroke-width="9" stroke-linecap="round">
    <path d="M 58 205 C 25 130, 20 80, 60 78"/>
    <path d="M 84 205 C 75 140, 70 70, 90 45"/>
    <path d="M 108 205 C 105 130, 110 60, 116 28"/>
    <path d="M 132 205 C 135 130, 130 60, 124 28"/>
    <path d="M 156 205 C 165 140, 170 70, 150 45"/>
    <path d="M 182 205 C 215 130, 220 80, 180 78"/>
  </g>
  <line x1="52" y1="208" x2="188" y2="208" stroke="#FAF6EE" stroke-width="3" stroke-linecap="round"/>
</svg>
