<svg xmlns="http://www.w3.org/2000/svg" viewBox="0 0 240 240" role="img" aria-label="Risen Six">
  <defs>
    <linearGradient id="rsGold" x1="0" y1="0" x2="0" y2="240" gradientUnits="userSpaceOnUse">
      <stop offset="0%"   stop-color="#F8DC91"/>
      <stop offset="50%"  stop-color="#C9962B"/>
      <stop offset="100%" stop-color="#6B4515"/>
    </linearGradient>
  </defs>
  <path d="M 102 22 L 110 6 L 118 22 L 120 4 L 122 22 L 130 6 L 138 22 Z" fill="url(#rsGold)"/>
  <g fill="none" stroke="url(#rsGold)" stroke-width="9" stroke-linecap="round">
    <path d="M 58 205 C 25 130, 20 80, 60 78"/>
    <path d="M 84 205 C 75 140, 70 70, 90 45"/>
    <path d="M 108 205 C 105 130, 110 60, 116 28"/>
    <path d="M 132 205 C 135 130, 130 60, 124 28"/>
    <path d="M 156 205 C 165 140, 170 70, 150 45"/>
    <path d="M 182 205 C 215 130, 220 80, 180 78"/>
  </g>
  <line x1="52" y1="208" x2="188" y2="208" stroke="url(#rsGold)" stroke-width="3" stroke-linecap="round"/>
</svg>
